<svg xmlns="http://www.w3.org/2000/svg" version="1.1" xmlns:xlink="http://www.w3.org/1999/xlink" xmlns:svgjs="http://svgjs.dev/svgjs" width="1500" height="1500" viewBox="0 0 1500 1500"><g transform="matrix(1,0,0,1,-0.21332335329316265,-0.21332335329350371)"><svg viewBox="0 0 334 334" data-background-color="#ffffff" preserveAspectRatio="xMidYMid meet" height="1500" width="1500" xmlns="http://www.w3.org/2000/svg" xmlns:xlink="http://www.w3.org/1999/xlink"><g id="tight-bounds" transform="matrix(1,0,0,1,0.04749999999998522,0.04750000000001364)"><svg viewBox="0 0 333.90454557049503 333.90454557049503" height="333.90454557049503" width="333.90454557049503"><g><svg></svg></g><g><svg viewBox="0 0 333.90454557049503 333.90454557049503" height="333.90454557049503" width="333.90454557049503"><g><path d="M0 166.952c0-92.205 74.747-166.952 166.952-166.952 92.205 0 166.952 74.747 166.953 166.952 0 92.205-74.747 166.952-166.953 166.953-92.205 0-166.952-74.747-166.952-166.953zM166.952 316.63c82.665 0 149.677-67.013 149.678-149.678 0-82.665-67.013-149.677-149.678-149.677-82.665 0-149.677 67.013-149.677 149.677 0 82.665 67.013 149.677 149.677 149.678z" data-fill-palette-color="tertiary" fill="#2257bf" stroke="transparent"></path><ellipse rx="160.27418187383762" ry="160.27418187383762" cx="166.95227278524752" cy="166.95227278524752" fill="#2257bf" stroke="transparent" stroke-width="0" fill-opacity="1" data-fill-palette-color="tertiary"></ellipse></g><g transform="matrix(1,0,0,1,74.71332670409771,71.17305217166896)"><svg viewBox="0 0 184.4778921622996 191.55844122715712" height="191.55844122715712" width="184.4778921622996"><g><svg viewBox="0 0 184.4778921622996 191.55844122715712" height="191.55844122715712" width="184.4778921622996"><g><svg viewBox="0 0 184.4778921622996 191.55844122715712" height="191.55844122715712" width="184.4778921622996"><g><svg viewBox="0 0 184.4778921622996 191.55844122715712" height="191.55844122715712" width="184.4778921622996"><g id="textblocktransform"><svg viewBox="0 0 184.4778921622996 191.55844122715712" height="191.55844122715712" width="184.4778921622996" id="textblock"><g><svg viewBox="0 0 184.4778921622996 191.55844122715712" height="191.55844122715712" width="184.4778921622996"><g transform="matrix(1,0,0,1,0,0)"><svg width="184.4778921622996" viewBox="-0.25432123456000005 -36.35 35.245230046079996 36.6" height="191.55844122715712" data-palette-color="#ffffff"><path d="M21.75-12L10.15-12 6.9-2.5 10.75-1.5Q10.9-0.55 10.5 0.25L10.5 0.25Q9.15 0.15 7.48 0.08 5.8 0 4.4 0L4.4 0Q3 0 2.1 0.08 1.2 0.15-0.2 0.25L-0.2 0.25Q-0.35-0.7-0.1-1.5L-0.1-1.5Q1-1.65 1.95-1.9 2.9-2.15 3.75-2.5L3.75-2.5 15.6-35.95Q16-36.2 16.57-36.27 17.15-36.35 17.55-36.35L17.55-36.35 31.1-2.5 34.95-1.5Q35.1-0.55 34.7 0.25L34.7 0.25Q33.35 0.15 31.68 0.08 30 0 28.6 0L28.6 0Q27.65 0 26.3 0.05 24.95 0.1 23.63 0.15 22.3 0.2 21.35 0.25L21.35 0.25Q21.2-0.7 21.45-1.5L21.45-1.5Q22.6-1.65 23.58-1.9 24.55-2.15 25.45-2.5L25.45-2.5 21.75-12ZM15.7-29L15.6-29Q15.1-27.2 14.58-25.35 14.05-23.5 13.4-21.6L13.4-21.6 11.05-14.75 20.65-14.75 17.9-21.85Q17.05-23.9 16.53-25.6 16-27.3 15.7-29L15.7-29Z" opacity="1" transform="matrix(1,0,0,1,0,0)" fill="#ffffff" class="wordmark-text-0" data-fill-palette-color="quaternary" id="text-0"></path></svg></g></svg></g></svg></g></svg></g><g></g></svg></g></svg></g></svg></g></svg></g><defs></defs></svg><rect width="333.90454557049503" height="333.90454557049503" fill="none" stroke="none" visibility="hidden"></rect></g></svg></g></svg>